<mxfile host="65bd71144e" modified="2021-01-06T21:27:46.012Z" agent="5.0 (Windows NT 10.0; Win64; x64) AppleWebKit/537.36 (KHTML, like Gecko) Code/1.52.1 Chrome/83.0.4103.122 Electron/9.3.5 Safari/537.36" etag="-17j8y-m9JBWbToTJG4F" version="13.10.0" type="embed">
    <diagram id="N9Zwo_-bydbVbYLfNZAt" name="Page-1">
        <mxGraphModel dx="258" dy="177" grid="1" gridSize="10" guides="1" tooltips="1" connect="1" arrows="1" fold="1" page="1" pageScale="1" pageWidth="827" pageHeight="1169" math="0" shadow="0">
            <root>
                <mxCell id="0"/>
                <mxCell id="1" parent="0"/>
                <mxCell id="69" value="" style="shape=hexagon;perimeter=hexagonPerimeter2;whiteSpace=wrap;html=1;fixedSize=1;rounded=1;gradientDirection=north;fillColor=#4285F4;" vertex="1" parent="1">
                    <mxGeometry x="40" y="120" width="110" height="110" as="geometry"/>
                </mxCell>
                <mxCell id="70" style="edgeStyle=orthogonalEdgeStyle;rounded=1;orthogonalLoop=1;jettySize=auto;html=1;entryX=0;entryY=0.75;entryDx=0;entryDy=0;endArrow=none;endFill=0;strokeColor=#F0F0F0;" edge="1" parent="1" source="71" target="77">
                    <mxGeometry relative="1" as="geometry">
                        <Array as="points">
                            <mxPoint x="65" y="180.99"/>
                        </Array>
                    </mxGeometry>
                </mxCell>
                <mxCell id="71" value="" style="ellipse;whiteSpace=wrap;html=1;aspect=fixed;rounded=1;fontColor=#ffffff;strokeColor=#FFFFFF;fillColor=#0F2CBB;" vertex="1" parent="1">
                    <mxGeometry x="57" y="191.99" width="15" height="15" as="geometry"/>
                </mxCell>
                <mxCell id="72" style="edgeStyle=orthogonalEdgeStyle;rounded=1;orthogonalLoop=1;jettySize=auto;html=1;exitX=0.5;exitY=1;exitDx=0;exitDy=0;entryX=0;entryY=0.25;entryDx=0;entryDy=0;strokeColor=#F0F0F0;endArrow=none;endFill=0;" edge="1" parent="1" source="73" target="77">
                    <mxGeometry relative="1" as="geometry">
                        <Array as="points">
                            <mxPoint x="65" y="168.99"/>
                        </Array>
                    </mxGeometry>
                </mxCell>
                <mxCell id="73" value="" style="ellipse;whiteSpace=wrap;html=1;aspect=fixed;rounded=1;fontColor=#ffffff;strokeColor=#F0F0F0;fillColor=#0F2CBB;" vertex="1" parent="1">
                    <mxGeometry x="57" y="144.99" width="15" height="15" as="geometry"/>
                </mxCell>
                <mxCell id="74" style="edgeStyle=orthogonalEdgeStyle;rounded=1;orthogonalLoop=1;jettySize=auto;html=1;endArrow=none;endFill=0;strokeColor=#F0F0F0;" edge="1" parent="1" source="75">
                    <mxGeometry relative="1" as="geometry">
                        <mxPoint x="125.88" y="174.99" as="targetPoint"/>
                    </mxGeometry>
                </mxCell>
                <mxCell id="75" value="" style="whiteSpace=wrap;html=1;aspect=fixed;rounded=1;" vertex="1" parent="1">
                    <mxGeometry x="87.13" y="163.12" width="23.75" height="23.75" as="geometry"/>
                </mxCell>
                <mxCell id="76" style="edgeStyle=orthogonalEdgeStyle;rounded=1;orthogonalLoop=1;jettySize=auto;html=1;entryX=0;entryY=0.5;entryDx=0;entryDy=0;endArrow=none;endFill=0;strokeColor=#F0F0F0;" edge="1" parent="1" source="77" target="78">
                    <mxGeometry relative="1" as="geometry">
                        <Array as="points">
                            <mxPoint x="99" y="142.99"/>
                        </Array>
                    </mxGeometry>
                </mxCell>
                <mxCell id="77" value="" style="whiteSpace=wrap;html=1;aspect=fixed;rounded=1;fontColor=#ffffff;fillColor=#FFFFFF;strokeColor=#050BB2;" vertex="1" parent="1">
                    <mxGeometry x="87.13" y="163.12" width="23.75" height="23.75" as="geometry"/>
                </mxCell>
                <mxCell id="78" value="" style="ellipse;whiteSpace=wrap;html=1;aspect=fixed;rounded=1;strokeColor=#006EAF;fontColor=#ffffff;fillColor=#00A1F1;" vertex="1" parent="1">
                    <mxGeometry x="105.25999999999999" y="139.37" width="5.62" height="5.62" as="geometry"/>
                </mxCell>
                <mxCell id="79" style="edgeStyle=orthogonalEdgeStyle;rounded=1;orthogonalLoop=1;jettySize=auto;html=1;entryX=1;entryY=0.5;entryDx=0;entryDy=0;endArrow=none;endFill=0;strokeColor=#F0F0F0;exitX=0.5;exitY=1;exitDx=0;exitDy=0;" edge="1" parent="1" source="77" target="80">
                    <mxGeometry relative="1" as="geometry">
                        <mxPoint x="87.13" y="233.74" as="sourcePoint"/>
                        <Array as="points">
                            <mxPoint x="99" y="212.99"/>
                        </Array>
                    </mxGeometry>
                </mxCell>
                <mxCell id="80" value="" style="ellipse;whiteSpace=wrap;html=1;aspect=fixed;rounded=1;strokeColor=#006EAF;fontColor=#ffffff;fillColor=#00A1F1;" vertex="1" parent="1">
                    <mxGeometry x="87.13" y="209.99" width="5.62" height="5.62" as="geometry"/>
                </mxCell>
                <mxCell id="81" value="" style="ellipse;whiteSpace=wrap;html=1;aspect=fixed;rounded=1;fontColor=#ffffff;strokeColor=#FFFFFF;fillColor=#0F2CBB;" vertex="1" parent="1">
                    <mxGeometry x="124" y="167.5" width="15" height="15" as="geometry"/>
                </mxCell>
            </root>
        </mxGraphModel>
    </diagram>
</mxfile>